HIERARCHY
ROOT Hips
{
  OFFSET 5.84602e-005 68.8428 3.50346
  CHANNELS 6 Xposition Yposition Zposition Zrotation Xrotation Yrotation
  JOINT Spine
  {
    OFFSET 0 8.597 -4.6522
    CHANNELS 3 Zrotation Xrotation Yrotation
    JOINT Spine1
    {
      OFFSET 0 7.8454 0.4098
      CHANNELS 3 Zrotation Xrotation Yrotation
      JOINT Spine2
      {
        OFFSET 0 9.7078 -2.1609
        CHANNELS 3 Zrotation Xrotation Yrotation
        JOINT Neck
        {
          OFFSET 0 21.8761 -0.4549
          CHANNELS 3 Zrotation Xrotation Yrotation
          JOINT Head
          {
            OFFSET 0 12.3537 3.3602
            CHANNELS 3 Zrotation Xrotation Yrotation
            End Site
            {
              OFFSET 0.0001 18.9506 0.5657
            }
          }
        }
        JOINT LeftShoulder
        {
          OFFSET 2.2086 21.1115 7.2329
          CHANNELS 3 Zrotation Xrotation Yrotation
          JOINT LeftArm
          {
            OFFSET 13.1193 3.0282 -4.8998
            CHANNELS 3 Zrotation Xrotation Yrotation
            JOINT LeftForeArm
            {
              OFFSET 27.4081 -0.0973053 -0.2375
              CHANNELS 3 Zrotation Xrotation Yrotation
              JOINT LeftHand
              {
                OFFSET 22.8641 0.0662994 -0.1369
                CHANNELS 3 Zrotation Xrotation Yrotation
                JOINT LeftHandIndex1
                {
                  OFFSET 8.8614 0.775009 2.4612
                  CHANNELS 3 Zrotation Xrotation Yrotation
                  JOINT LeftHandIndex2
                  {
                    OFFSET 3.3146 -0.808304 0.5841
                    CHANNELS 3 Zrotation Xrotation Yrotation
                    JOINT LeftHandIndex3
                    {
                      OFFSET 2.2628 -0.552002 0.3989
                      CHANNELS 3 Zrotation Xrotation Yrotation
                      End Site
                      {
                        OFFSET 1.6102 -0.4807 0.2612
                      }
                    }
                  }
                }
                JOINT LeftHandMiddle1
                {
                  OFFSET 8.9937 0.895004 0.2143
                  CHANNELS 3 Zrotation Xrotation Yrotation
                  JOINT LeftHandMiddle2
                  {
                    OFFSET 4.0984 0.0113983 -0.0242
                    CHANNELS 3 Zrotation Xrotation Yrotation
                    JOINT LeftHandMiddle3
                    {
                      OFFSET 2.2716 0.00689697 -0.0138001
                      CHANNELS 3 Zrotation Xrotation Yrotation
                      End Site
                      {
                        OFFSET 2.0404 -0.1441 0.0027
                      }
                    }
                  }
                }
                JOINT LeftHandRing1
                {
                  OFFSET 8.5234 0.597198 -2.0164
                  CHANNELS 3 Zrotation Xrotation Yrotation
                  JOINT LeftHandRing2
                  {
                    OFFSET 3.7188 -0.188293 -0.2328
                    CHANNELS 3 Zrotation Xrotation Yrotation
                    JOINT LeftHandRing3
                    {
                      OFFSET 2.1191 -0.106598 -0.1332
                      CHANNELS 3 Zrotation Xrotation Yrotation
                      End Site
                      {
                        OFFSET 1.8737 -0.2304 -0.0886
                      }
                    }
                  }
                }
                JOINT LeftHandPinky1
                {
                  OFFSET 7.9094 -0.601089 -3.4825
                  CHANNELS 3 Zrotation Xrotation Yrotation
                  JOINT LeftHandPinky2
                  {
                    OFFSET 2.2874 -0.477005 -0.6314
                    CHANNELS 3 Zrotation Xrotation Yrotation
                    JOINT LeftHandPinky3
                    {
                      OFFSET 1.6774 -0.349396 -0.4633
                      CHANNELS 3 Zrotation Xrotation Yrotation
                      End Site
                      {
                        OFFSET 1.4888 -0.4091 -0.3416
                      }
                    }
                  }
                }
                JOINT LeftHandThumb1
                {
                  OFFSET 1.833 -1.3875 1.3896
                  CHANNELS 3 Zrotation Xrotation Yrotation
                  JOINT LeftHandThumb2
                  {
                    OFFSET 3.4129 -1.121 2.5732
                    CHANNELS 3 Zrotation Xrotation Yrotation
                    JOINT LeftHandThumb3
                    {
                      OFFSET 2.2474 -0.804199 1.6192
                      CHANNELS 3 Zrotation Xrotation Yrotation
                      End Site
                      {
                        OFFSET 1.6527 -0.5689 1.1317
                      }
                    }
                  }
                }
              }
            }
          }
        }
        JOINT RightShoulder
        {
          OFFSET -2.2086 21.1115 7.2329
          CHANNELS 3 Zrotation Xrotation Yrotation
          JOINT RightArm
          {
            OFFSET -13.1216 3.0287 -4.9007
            CHANNELS 3 Zrotation Xrotation Yrotation
            JOINT RightForeArm
            {
              OFFSET -27.4081 -0.0973053 -0.2375
              CHANNELS 3 Zrotation Xrotation Yrotation
              JOINT RightHand
              {
                OFFSET -22.8641 0.0664063 -0.1369
                CHANNELS 3 Zrotation Xrotation Yrotation
                JOINT RightHandIndex1
                {
                  OFFSET -8.8614 0.774994 2.4612
                  CHANNELS 3 Zrotation Xrotation Yrotation
                  JOINT RightHandIndex2
                  {
                    OFFSET -3.3146 -0.808304 0.5841
                    CHANNELS 3 Zrotation Xrotation Yrotation
                    JOINT RightHandIndex3
                    {
                      OFFSET -2.2628 -0.552002 0.3989
                      CHANNELS 3 Zrotation Xrotation Yrotation
                      End Site
                      {
                        OFFSET -1.6102 -0.4807 0.2612
                      }
                    }
                  }
                }
                JOINT RightHandMiddle1
                {
                  OFFSET -8.9937 0.894989 0.2143
                  CHANNELS 3 Zrotation Xrotation Yrotation
                  JOINT RightHandMiddle2
                  {
                    OFFSET -4.0984 0.0113983 -0.0242
                    CHANNELS 3 Zrotation Xrotation Yrotation
                    JOINT RightHandMiddle3
                    {
                      OFFSET -2.2716 0.00691223 -0.0138001
                      CHANNELS 3 Zrotation Xrotation Yrotation
                      End Site
                      {
                        OFFSET -2.0404 -0.1441 0.0027
                      }
                    }
                  }
                }
                JOINT RightHandRing1
                {
                  OFFSET -8.5234 0.597198 -2.0164
                  CHANNELS 3 Zrotation Xrotation Yrotation
                  JOINT RightHandRing2
                  {
                    OFFSET -3.7188 -0.188309 -0.2328
                    CHANNELS 3 Zrotation Xrotation Yrotation
                    JOINT RightHandRing3
                    {
                      OFFSET -2.1191 -0.106598 -0.1332
                      CHANNELS 3 Zrotation Xrotation Yrotation
                      End Site
                      {
                        OFFSET -1.8737 -0.2304 -0.0886
                      }
                    }
                  }
                }
                JOINT RightHandPinky1
                {
                  OFFSET -7.9094 -0.601105 -3.4825
                  CHANNELS 3 Zrotation Xrotation Yrotation
                  JOINT RightHandPinky2
                  {
                    OFFSET -2.2874 -0.477005 -0.6314
                    CHANNELS 3 Zrotation Xrotation Yrotation
                    JOINT RightHandPinky3
                    {
                      OFFSET -1.6774 -0.349396 -0.4633
                      CHANNELS 3 Zrotation Xrotation Yrotation
                      End Site
                      {
                        OFFSET -1.4888 -0.4091 -0.3416
                      }
                    }
                  }
                }
                JOINT RightHandThumb1
                {
                  OFFSET -1.833 -1.38751 1.3896
                  CHANNELS 3 Zrotation Xrotation Yrotation
                  JOINT RightHandThumb2
                  {
                    OFFSET -3.41299 -1.12099 2.5732
                    CHANNELS 3 Zrotation Xrotation Yrotation
                    JOINT RightHandThumb3
                    {
                      OFFSET -2.24741 -0.804108 1.6192
                      CHANNELS 3 Zrotation Xrotation Yrotation
                      End Site
                      {
                        OFFSET -1.6527 -0.5689 1.1317
                      }
                    }
                  }
                }
              }
            }
          }
        }
      }
    }
  }
  JOINT RightUpLeg
  {
    OFFSET -9.1966 3.8861 -0.7581
    CHANNELS 3 Zrotation Xrotation Yrotation
    JOINT RightLeg
    {
      OFFSET -0.7359 -41.0265 0
      CHANNELS 3 Zrotation Xrotation Yrotation
      JOINT RightFoot
      {
        OFFSET 0 -40.2855 0
        CHANNELS 3 Zrotation Xrotation Yrotation
        JOINT RightToeBase
        {
          OFFSET 0 -5.6122 11.7359
          CHANNELS 3 Zrotation Xrotation Yrotation
          End Site
          {
            OFFSET 0 0 7.8731
          }
        }
      }
    }
  }
  JOINT LeftUpLeg
  {
    OFFSET 9.1965 3.8864 -0.7581
    CHANNELS 3 Zrotation Xrotation Yrotation
    JOINT LeftLeg
    {
      OFFSET 0.7359 -41.0268 0
      CHANNELS 3 Zrotation Xrotation Yrotation
      JOINT LeftFoot
      {
        OFFSET 0 -40.2855 0
        CHANNELS 3 Zrotation Xrotation Yrotation
        JOINT LeftToeBase
        {
          OFFSET 0 -5.6122 11.7359
          CHANNELS 3 Zrotation Xrotation Yrotation
          End Site
          {
            OFFSET 0 0 7.8731
          }
        }
      }
    }
  }
}
MOTION
Frames:	4
Frame Time:	0.0333333
-7.12393 -0.943798 -62.411 90.1363 -85.2668 -179.861 2.03344 -3.06827 -0.260488 4.06166 -6.14383 -0.412506 4.06166 -6.14383 -0.412505 8.99828 -1.98026 0.311981 -0.00107267 -10.0018 -14.7143 -18.2693 -2.92266 -7.91071 -48.6968 2.47046 -66.1548 -9.54543 4.70571 0.162108 -57.9143 10.9837 -30.3715 1.19271e-015 0 7.95139e-016 1.87027e-007 5.13757e-007 -6.51724e-007 1.87027e-007 5.13757e-007 -6.51724e-007 1.19271e-015 0 7.95139e-016 -0.0145832 -8.67653e-005 -2.07317e-006 1.87036e-007 5.1384e-007 -6.51658e-007 1.19271e-015 0 7.95139e-016 -0.0187314 -0.00117385 5.96307e-005 1.87033e-007 5.13865e-007 -6.51642e-007 1.19271e-015 0 7.95139e-016 -0.0122308 -0.00324147 0.000673593 1.8702e-007 5.13828e-007 -6.51675e-007 1.19271e-015 0 7.95139e-016 1.87027e-007 5.13757e-007 -6.51724e-007 1.87027e-007 5.13757e-007 -6.51724e-007 6.87733 -19.8376 -44.15 32.2817 10.4706 -16.4131 68.8889 -32.4391 6.59155 -32.4493 7.10821 12.6797 -1.90935e-006 -1.97556e-006 1.71525e-006 -1.90935e-006 -1.97556e-006 1.71525e-006 -1.12003e-005 2.03308e-006 1.77729e-006 -1.90935e-006 -1.97556e-006 1.71525e-006 0.01496 -9.42915e-005 -5.64685e-006 -1.12007e-005 2.03331e-006 1.77703e-006 -1.90935e-006 -1.97556e-006 1.71525e-006 0.0190094 -0.00119302 -5.32147e-005 -1.12007e-005 2.0334e-006 1.77707e-006 -1.90935e-006 -1.97556e-006 1.71525e-006 0.0122479 -0.0032503 -0.000672287 -1.12006e-005 2.03328e-006 1.77741e-006 -1.90935e-006 -1.97556e-006 1.71525e-006 -1.90935e-006 -1.97556e-006 1.71525e-006 -1.12003e-005 2.03308e-006 1.77729e-006 -69.0986 -20.7638 -85.5109 144.911 47.662 -138.625 1.91578 24.1317 11.4439 -4.65295e-007 8.79249e-008 1.12593e-006 -1.8273 7.60318 8.27017 1.72275 48.6817 -3.37528 5.58634 40.1262 2.66882 4.99523e-009 2.97619e-007 3.05629e-007 
-7.02147 -0.943787 -62.4606 90.1332 -85.0414 -179.864 2.03346 -3.06831 -0.260506 4.06167 -6.14384 -0.412495 4.06167 -6.14383 -0.412491 8.99805 -1.97973 0.312079 -0.0010719 -10.0018 -14.8439 -18.5199 -2.7048 -8.31918 -48.5533 2.21757 -65.8148 -9.31506 4.69145 0.162379 -58.0805 10.9745 -30.3045 8.3018e-006 6.47445e-007 1.90557e-006 1.44408e-007 -1.30398e-006 -1.02714e-006 1.06503e-006 2.53908e-007 5.41046e-007 8.3018e-006 6.47445e-007 1.90557e-006 -0.0145771 -9.00104e-005 1.5714e-006 1.86738e-007 5.13655e-007 -6.51925e-007 8.3018e-006 6.47445e-007 1.90557e-006 -0.018766 -0.00118001 5.96464e-005 1.06343e-006 2.53718e-007 5.41082e-007 8.3018e-006 6.47445e-007 1.90557e-006 -0.0123181 -0.00326886 0.00067868 1.86721e-007 5.13643e-007 -6.51941e-007 8.3018e-006 6.47445e-007 1.90557e-006 1.44408e-007 -1.30398e-006 -1.02714e-006 1.06503e-006 2.53908e-007 5.41046e-007 6.8773 -19.8376 -44.15 32.2817 10.4706 -16.4131 68.8889 -32.4391 6.59152 -32.4493 7.10819 12.6797 -2.6676e-006 -1.76702e-006 2.04163e-006 -1.91324e-006 -1.9718e-006 1.71737e-006 -1.91324e-006 -1.9718e-006 1.71737e-006 -2.6676e-006 -1.76702e-006 2.04163e-006 0.0149928 -9.19115e-005 -6.66543e-007 -1.91338e-006 -1.97157e-006 1.71763e-006 -2.6676e-006 -1.76702e-006 2.04163e-006 0.0189791 -0.00119777 -6.47227e-005 -1.9134e-006 -1.9715e-006 1.71772e-006 -2.6676e-006 -1.76702e-006 2.04163e-006 0.0122528 -0.00324425 -0.000674373 -1.91329e-006 -1.97159e-006 1.71764e-006 -2.6676e-006 -1.76702e-006 2.04163e-006 -1.91324e-006 -1.9718e-006 1.71737e-006 -1.91324e-006 -1.9718e-006 1.71737e-006 -68.9605 -20.5767 -85.1931 144.909 47.6628 -138.626 1.91453 24.1311 11.4424 -2.82212e-007 9.44192e-007 3.23723e-006 -1.82004 8.01196 8.25634 1.6244 48.4036 -3.31171 5.59214 40.1247 2.66678 -3.65264e-009 -7.64188e-008 7.43951e-008 
-6.91908 -0.943773 -62.5103 90.1307 -84.816 -179.867 2.0334 -3.06828 -0.260487 4.06167 -6.14385 -0.412521 4.06168 -6.14386 -0.412491 8.99824 -1.98027 0.311963 -0.00108367 -10.0018 -14.9736 -18.7687 -2.48519 -8.72657 -48.4083 1.96555 -65.4742 -9.08467 4.67751 0.162622 -58.2468 10.9651 -30.2376 -4.2703e-008 -1.8179e-006 -3.74532e-007 -1.86442e-007 -5.13392e-007 6.52252e-007 9.46889e-006 -2.22108e-006 1.03971e-006 -4.2703e-008 -1.8179e-006 -3.74532e-007 -0.0145971 -8.9102e-005 -1.19833e-007 9.46898e-006 -2.22122e-006 1.03942e-006 -4.2703e-008 -1.8179e-006 -3.74532e-007 -0.0187699 -0.00117511 6.3051e-005 9.46902e-006 -2.22125e-006 1.03925e-006 -4.2703e-008 -1.8179e-006 -3.74532e-007 -0.0123011 -0.00325379 0.000677659 9.46898e-006 -2.22123e-006 1.0392e-006 -4.2703e-008 -1.8179e-006 -3.74532e-007 -1.86442e-007 -5.13392e-007 6.52252e-007 9.46889e-006 -2.22108e-006 1.03971e-006 6.8773 -19.8376 -44.15 32.2817 10.4706 -16.4131 68.8889 -32.4391 6.59153 -32.4492 7.1082 12.6797 1.91712e-006 1.96803e-006 -1.71948e-006 1.91712e-006 1.96803e-006 -1.71948e-006 1.91712e-006 1.96803e-006 -1.71948e-006 1.91712e-006 1.96803e-006 -1.71948e-006 0.0149802 -9.35522e-005 -4.31326e-006 1.91726e-006 1.9678e-006 -1.71974e-006 1.91712e-006 1.96803e-006 -1.71948e-006 0.0189881 -0.00118578 -5.33651e-005 1.91728e-006 1.96773e-006 -1.71983e-006 1.91712e-006 1.96803e-006 -1.71948e-006 0.0122616 -0.00323429 -0.000679906 2.64781e-006 1.75684e-006 -2.05038e-006 1.91712e-006 1.96803e-006 -1.71948e-006 1.91712e-006 1.96803e-006 -1.71948e-006 1.91712e-006 1.96803e-006 -1.71948e-006 -68.8234 -20.3892 -84.876 144.908 47.6637 -138.628 1.91338 24.1305 11.4409 6.26357e-007 -7.17036e-007 -6.594e-008 -1.81271 8.42069 8.24241 1.52703 48.1254 -3.24915 5.59794 40.1232 2.66475 -3.58541e-009 -7.64302e-008 7.43854e-008 
-6.81675 -0.943753 -62.5601 90.1284 -84.5906 -179.869 2.03348 -3.0683 -0.260494 4.06166 -6.14382 -0.412495 4.06167 -6.14385 -0.412498 8.99823 -1.98025 0.31197 -0.00109581 -10.0018 -15.1033 -19.016 -2.26387 -9.13291 -48.2619 1.71442 -65.1331 -8.85428 4.66386 0.162878 -58.4131 10.9555 -30.1707 -0 0 2.38542e-015 -3.97569e-016 0 2.38542e-015 -7.95139e-016 -3.18055e-015 2.38542e-015 -0 0 2.38542e-015 -0.0146404 -8.8914e-005 -1.16186e-007 -6.36111e-015 0 7.95139e-016 -0 0 2.38542e-015 -0.0187831 -0.00117695 6.11526e-005 1.19271e-015 -6.36111e-015 -1.59028e-015 -0 0 2.38542e-015 -0.0122743 -0.00325055 0.000677547 -3.97569e-015 2.22639e-014 -0 -0 0 2.38542e-015 -3.97569e-016 0 2.38542e-015 -7.95139e-016 -3.18055e-015 2.38542e-015 6.8773 -19.8376 -44.15 32.2817 10.4706 -16.4131 68.8889 -32.4391 6.59153 -32.4492 7.1082 12.6797 -1.92099e-006 -1.96425e-006 1.72159e-006 -1.92099e-006 -1.96425e-006 1.72159e-006 -1.92099e-006 -1.96425e-006 1.72159e-006 -1.92099e-006 -1.96425e-006 1.72159e-006 0.0149842 -9.2761e-005 9.6886e-006 -1.92113e-006 -1.96402e-006 1.72185e-006 -1.92099e-006 -1.96425e-006 1.72159e-006 0.0189721 -0.00119305 -5.68304e-005 -1.92115e-006 -1.96395e-006 1.72194e-006 -1.92099e-006 -1.96425e-006 1.72159e-006 0.0122652 -0.0032443 -0.00067205 -1.92105e-006 -1.96404e-006 1.72186e-006 -1.92099e-006 -1.96425e-006 1.72159e-006 -1.92099e-006 -1.96425e-006 1.72159e-006 -1.92099e-006 -1.96425e-006 1.72159e-006 -68.688 -20.2005 -84.56 144.907 47.6643 -138.629 1.91216 24.1298 11.4395 -1.50465e-006 -3.04945e-007 2.69986e-008 -1.80522 8.82945 8.22841 1.43044 47.8471 -3.18756 5.60386 40.1217 2.66266 1.30966e-007 1.18993e-008 1.36916e-007 
